<?xml version="1.0" encoding="UTF-8" standalone="no"?>
<!DOCTYPE svg PUBLIC "-//W3C//DTD SVG 1.1//EN" "http://www.w3.org/Graphics/SVG/1.1/DTD/svg11.dtd">
<svg width="100%" height="100%" viewBox="0 0 1000 700" version="1.1" xmlns="http://www.w3.org/2000/svg" xmlns:xlink="http://www.w3.org/1999/xlink" xml:space="preserve" xmlns:serif="http://www.serif.com/" style="fill-rule:evenodd;clip-rule:evenodd;stroke-linejoin:round;stroke-miterlimit:2;">
    <g id="g8" transform="matrix(1,0,0,1,379.5,1)">
        <g id="path10" transform="matrix(3.98265,0,0,3.98265,-361.906,1.67379)">
            <path d="M38.003,153.656C19.2,133.731 8.198,106.205 8.226,73.362C8.2,44.317 17.326,19.351 33.015,0.354L32.99,0.363L0.014,0.363L0.014,153.659L37.98,153.659L38.003,153.656Z" style="fill:rgb(169,5,51);fill-rule:nonzero;"/>
        </g>
        <g id="path12" transform="matrix(3.98265,0,0,3.98265,-361.906,1.67379)">
            <path d="M211.673,153.669C219.773,144.993 227.031,134.776 233.608,123.091L197.109,104.842C184.29,125.681 165.545,144.863 139.623,144.991C101.896,144.863 87.074,112.603 87.155,71.08L228.133,71.08C228.321,66.392 228.321,64.213 228.133,61.956C229.053,37.253 222.506,16.488 210.596,0.318L210.535,0.364L242.276,0.364L242.276,153.66L211.604,153.66L211.673,153.669Z" style="fill:rgb(169,5,51);fill-rule:nonzero;"/>
        </g>
        <g id="path14" transform="matrix(3.98265,0,0,3.98265,-361.906,1.67379)">
            <path d="M89.437,35.494C90.998,16.694 105.82,4.051 123.199,4.013C140.696,4.051 153.338,16.694 153.767,35.494L89.437,35.494Z" style="fill:rgb(169,5,51);fill-rule:nonzero;"/>
        </g>
    </g>
    <g id="g16" transform="matrix(1.3244,0,0,0.859303,17.5949,513.614)">
        <g transform="matrix(0.338679,0,0,0.340719,-46.4659,88.9775)">
            <path d="M137,96L370,96C389.6,96 401,112.9 401,133L401,362L336,362L336,163L298,163L298,362L239,362L239,163L202,163L202,362L137,362L137,96Z" style="fill:rgb(127,127,127);fill-rule:nonzero;"/>
        </g>
        <g transform="matrix(0.340719,0,0,0.340719,-47.2843,88.9775)">
            <rect x="433" y="96" width="65" height="266" style="fill:rgb(127,127,127);"/>
        </g>
        <g transform="matrix(0.340719,0,0,0.340719,-47.2843,88.9775)">
            <path d="M529,96L722,96C741.6,96 753,112.9 753,133L753,329C753,353.9 742.6,362 720,362L529,362L529,193L595,193L595,297L688,297L688,156L529,156L529,96Z" style="fill:rgb(127,127,127);fill-rule:nonzero;"/>
        </g>
        <g transform="matrix(0.345788,0,0,0.340719,-51.2532,88.9775)">
            <rect x="783" y="96" width="66" height="266" style="fill:rgb(127,127,127);"/>
        </g>
    </g>
    <g transform="matrix(12.065,0,0,12.065,-55.0566,-325.674)">
        <g transform="matrix(12,0,0,12,33.9535,84.6323)">
            <path d="M0.394,-0.096L0.394,-0.217L0.166,-0.217C0.153,-0.217 0.14,-0.219 0.128,-0.224C0.117,-0.229 0.107,-0.236 0.098,-0.245C0.089,-0.253 0.082,-0.264 0.077,-0.275C0.072,-0.287 0.07,-0.3 0.07,-0.313L0.07,-0.424C0.07,-0.437 0.072,-0.45 0.077,-0.461C0.082,-0.473 0.089,-0.483 0.098,-0.492C0.107,-0.501 0.117,-0.507 0.128,-0.512C0.14,-0.517 0.153,-0.52 0.166,-0.52L0.47,-0.52L0.47,-0.424L0.166,-0.424L0.166,-0.313L0.394,-0.313C0.407,-0.313 0.42,-0.31 0.431,-0.305C0.443,-0.3 0.453,-0.294 0.462,-0.285C0.471,-0.276 0.478,-0.266 0.483,-0.254C0.488,-0.243 0.49,-0.23 0.49,-0.217L0.49,-0.096C0.49,-0.083 0.488,-0.07 0.483,-0.059C0.478,-0.047 0.471,-0.037 0.462,-0.028C0.453,-0.019 0.443,-0.013 0.431,-0.008C0.42,-0.003 0.407,-0 0.394,-0L0.07,-0L0.07,-0.096L0.394,-0.096Z" style="fill:rgb(128,128,128);fill-rule:nonzero;"/>
        </g>
        <g transform="matrix(12,0,0,12,43.0742,84.6323)">
            <path d="M0.52,-0.211L0.176,-0.211L0.176,-0.096L0.52,-0.096L0.52,-0L0.176,-0C0.163,-0 0.15,-0.003 0.139,-0.008C0.127,-0.013 0.117,-0.019 0.108,-0.028C0.1,-0.037 0.093,-0.047 0.088,-0.059C0.083,-0.07 0.08,-0.083 0.08,-0.096L0.08,-0.424C0.08,-0.437 0.083,-0.45 0.088,-0.461C0.093,-0.473 0.1,-0.483 0.108,-0.492C0.117,-0.501 0.127,-0.507 0.139,-0.512C0.15,-0.517 0.163,-0.52 0.176,-0.52L0.424,-0.52C0.437,-0.52 0.45,-0.517 0.461,-0.512C0.473,-0.507 0.483,-0.501 0.492,-0.492C0.501,-0.483 0.507,-0.473 0.512,-0.461C0.517,-0.45 0.52,-0.437 0.52,-0.424L0.52,-0.211ZM0.176,-0.424L0.176,-0.307L0.424,-0.307L0.424,-0.424L0.176,-0.424Z" style="fill:rgb(128,128,128);fill-rule:nonzero;"/>
        </g>
        <g transform="matrix(12,0,0,12,52.6754,84.6323)">
            <path d="M0.176,-0.424L0.176,-0L0.08,-0L0.08,-0.52L0.176,-0.52L0.176,-0.428C0.176,-0.441 0.179,-0.453 0.185,-0.464C0.19,-0.475 0.197,-0.485 0.205,-0.493C0.214,-0.502 0.224,-0.508 0.235,-0.513C0.247,-0.518 0.259,-0.52 0.272,-0.52L0.374,-0.52C0.387,-0.52 0.4,-0.517 0.411,-0.512C0.423,-0.507 0.433,-0.501 0.442,-0.492C0.451,-0.483 0.458,-0.473 0.463,-0.461C0.468,-0.45 0.47,-0.437 0.47,-0.424L0.47,-0.336L0.374,-0.336L0.374,-0.424L0.176,-0.424Z" style="fill:rgb(128,128,128);fill-rule:nonzero;"/>
        </g>
        <g transform="matrix(12,0,0,12,61.1926,84.6323)">
            <path d="M0.228,-0L0.02,-0.52L0.12,-0.52L0.278,-0.115L0.436,-0.52L0.536,-0.52L0.328,-0L0.228,-0Z" style="fill:rgb(128,128,128);fill-rule:nonzero;"/>
        </g>
        <g transform="matrix(12,0,0,12,70.2664,84.6323)">
            <path d="M0.52,-0.211L0.176,-0.211L0.176,-0.096L0.52,-0.096L0.52,-0L0.176,-0C0.163,-0 0.15,-0.003 0.139,-0.008C0.127,-0.013 0.117,-0.019 0.108,-0.028C0.1,-0.037 0.093,-0.047 0.088,-0.059C0.083,-0.07 0.08,-0.083 0.08,-0.096L0.08,-0.424C0.08,-0.437 0.083,-0.45 0.088,-0.461C0.093,-0.473 0.1,-0.483 0.108,-0.492C0.117,-0.501 0.127,-0.507 0.139,-0.512C0.15,-0.517 0.163,-0.52 0.176,-0.52L0.424,-0.52C0.437,-0.52 0.45,-0.517 0.461,-0.512C0.473,-0.507 0.483,-0.501 0.492,-0.492C0.501,-0.483 0.507,-0.473 0.512,-0.461C0.517,-0.45 0.52,-0.437 0.52,-0.424L0.52,-0.211ZM0.176,-0.424L0.176,-0.307L0.424,-0.307L0.424,-0.424L0.176,-0.424Z" style="fill:rgb(128,128,128);fill-rule:nonzero;"/>
        </g>
        <g transform="matrix(12,0,0,12,79.8676,84.6323)">
            <path d="M0.176,-0.424L0.176,-0L0.08,-0L0.08,-0.52L0.176,-0.52L0.176,-0.428C0.176,-0.441 0.179,-0.453 0.185,-0.464C0.19,-0.475 0.197,-0.485 0.205,-0.493C0.214,-0.502 0.224,-0.508 0.235,-0.513C0.247,-0.518 0.259,-0.52 0.272,-0.52L0.374,-0.52C0.387,-0.52 0.4,-0.517 0.411,-0.512C0.423,-0.507 0.433,-0.501 0.442,-0.492C0.451,-0.483 0.458,-0.473 0.463,-0.461C0.468,-0.45 0.47,-0.437 0.47,-0.424L0.47,-0.336L0.374,-0.336L0.374,-0.424L0.176,-0.424Z" style="fill:rgb(128,128,128);fill-rule:nonzero;"/>
        </g>
    </g>
</svg>
